<svg version="1.1" xmlns="http://www.w3.org/2000/svg" viewBox="0 0 1269.1660088455474 298.4483123669196" width="1269.1660088455474" height="298.4483123669196">
  <!-- svg-source:excalidraw -->
  
  <defs>
    <style class="style-fonts">
      @font-face {
        font-family: "Virgil";
        src: url("https://excalidraw.com/Virgil.woff2");
      }
      @font-face {
        font-family: "Cascadia";
        src: url("https://excalidraw.com/Cascadia.woff2");
      }
      @font-face {
        font-family: "Assistant";
        src: url("https://excalidraw.com/Assistant-Regular.woff2");
      }
    </style>
    
  </defs>
  <rect x="0" y="0" width="1269.1660088455474" height="298.4483123669196" fill="#ffffff"></rect><g stroke-linecap="round" transform="translate(10 177.52423679803417) rotate(0 85.328997745979 55.3191939041576)"><path d="M0 0 C67.16 0, 134.32 0, 170.66 0 M0 0 C56.41 0, 112.83 0, 170.66 0 M170.66 0 C170.66 42.82, 170.66 85.64, 170.66 110.64 M170.66 0 C170.66 32.09, 170.66 64.18, 170.66 110.64 M170.66 110.64 C108.4 110.64, 46.14 110.64, 0 110.64 M170.66 110.64 C116.48 110.64, 62.31 110.64, 0 110.64 M0 110.64 C0 66.9, 0 23.17, 0 0 M0 110.64 C0 76.36, 0 42.09, 0 0" stroke="#f08c00" stroke-width="4" fill="none"></path></g><g transform="translate(71.334857120979 212.14343070219178) rotate(0 23.994140625 20.699999999999996)"><text x="23.994140625" y="33.120703125" font-family="Helvetica, Segoe UI Emoji" font-size="36px" fill="#f08c00" text-anchor="middle" style="white-space: pre;" direction="ltr" dominant-baseline="alphabetic">crc</text></g><g stroke-linecap="round" transform="translate(181.34580104013412 177.8099245586044) rotate(0 178.87268415024823 55.3191939041576)"><path d="M0 0 C120.85 0, 241.7 0, 357.75 0 M0 0 C98.77 0, 197.54 0, 357.75 0 M357.75 0 C357.75 39.47, 357.75 78.94, 357.75 110.64 M357.75 0 C357.75 36.91, 357.75 73.82, 357.75 110.64 M357.75 110.64 C223.61 110.64, 89.48 110.64, 0 110.64 M357.75 110.64 C227.75 110.64, 97.75 110.64, 0 110.64 M0 110.64 C0 75.03, 0 39.41, 0 0 M0 110.64 C0 82.44, 0 54.23, 0 0" stroke="#2f9e44" stroke-width="4" fill="none"></path></g><g transform="translate(277.1970008153821 212.429118462762) rotate(0 83.021484375 20.699999999999996)"><text x="83.021484375" y="33.120703125" font-family="Helvetica, Segoe UI Emoji" font-size="36px" fill="#2f9e44" text-anchor="middle" style="white-space: pre;" direction="ltr" dominant-baseline="alphabetic">timestamp</text></g><g stroke-linecap="round" transform="translate(543.144469459 176.94005350485315) rotate(0 178.872684150248 55.3191939041576)"><path d="M0 0 C122.97 0, 245.93 0, 357.75 0 M0 0 C84.28 0, 168.56 0, 357.75 0 M357.75 0 C357.75 41.26, 357.75 82.52, 357.75 110.64 M357.75 0 C357.75 42.05, 357.75 84.11, 357.75 110.64 M357.75 110.64 C218.46 110.64, 79.18 110.64, 0 110.64 M357.75 110.64 C215.15 110.64, 72.55 110.64, 0 110.64 M0 110.64 C0 70.94, 0 31.25, 0 0 M0 110.64 C0 81.55, 0 52.46, 0 0" stroke="#1971c2" stroke-width="4" fill="none"></path></g><g transform="translate(656.995669234248 211.55924740901077) rotate(0 65.021484375 20.699999999999996)"><text x="65.021484375" y="33.120703125" font-family="Helvetica, Segoe UI Emoji" font-size="36px" fill="#1971c2" text-anchor="middle" style="white-space: pre;" direction="ltr" dominant-baseline="alphabetic">key size</text></g><g stroke-linecap="round" transform="translate(901.4206405450509 177.28035438261293) rotate(0 178.87268415024823 55.3191939041576)"><path d="M0 0 C138.46 0, 276.91 0, 357.75 0 M0 0 C110.87 0, 221.75 0, 357.75 0 M357.75 0 C357.75 39.9, 357.75 79.8, 357.75 110.64 M357.75 0 C357.75 25.98, 357.75 51.96, 357.75 110.64 M357.75 110.64 C283.8 110.64, 209.86 110.64, 0 110.64 M357.75 110.64 C278.09 110.64, 198.43 110.64, 0 110.64 M0 110.64 C0 71.36, 0 32.08, 0 0 M0 110.64 C0 71.21, 0 31.79, 0 0" stroke="#1971c2" stroke-width="4" fill="none"></path></g><g transform="translate(1000.2513325077989 211.89954828677054) rotate(0 80.0419921875 20.699999999999996)"><text x="80.0419921875" y="33.120703125" font-family="Helvetica, Segoe UI Emoji" font-size="36px" fill="#1971c2" text-anchor="middle" style="white-space: pre;" direction="ltr" dominant-baseline="alphabetic">value size</text></g><g transform="translate(29.95394579629101 128.23590243542782) rotate(0 58.0341796875 20.7)"><text x="58.0341796875" y="33.120703125" font-family="Helvetica, Segoe UI Emoji" font-size="36px" fill="#f08c00" text-anchor="middle" style="white-space: pre;" direction="ltr" dominant-baseline="alphabetic">2 bytes</text></g><g transform="translate(300.13426751726774 125.30642059574467) rotate(0 58.0341796875 20.7)"><text x="58.0341796875" y="33.120703125" font-family="Helvetica, Segoe UI Emoji" font-size="36px" fill="#2f9e44" text-anchor="middle" style="white-space: pre;" direction="ltr" dominant-baseline="alphabetic">8 bytes</text></g><g transform="translate(672.8648595326708 121.97240752640442) rotate(0 58.0341796875 20.7)"><text x="58.0341796875" y="33.120703125" font-family="Helvetica, Segoe UI Emoji" font-size="36px" fill="#1971c2" text-anchor="middle" style="white-space: pre;" direction="ltr" dominant-baseline="alphabetic">8 bytes</text></g><g transform="translate(1027.6007735290923 119.70175930119893) rotate(0 58.0341796875 20.7)"><text x="58.0341796875" y="33.120703125" font-family="Helvetica, Segoe UI Emoji" font-size="36px" fill="#1971c2" text-anchor="middle" style="white-space: pre;" direction="ltr" dominant-baseline="alphabetic">8 bytes</text></g><g transform="translate(500.467724277466 10) rotate(0 103.61951359951581 31.5221749456962)"><text x="103.6195135995159" y="50.436550639165056" font-family="Helvetica, Segoe UI Emoji" font-size="54.82117381860208px" fill="#e03131" text-anchor="middle" style="white-space: pre;" direction="ltr" dominant-baseline="alphabetic">26 bytes</text></g></svg>